<svg width="121" height="55" fill="none" xmlns="http://www.w3.org/2000/svg"><path d="M13.755 34.49c-3.617 0-6.44-.992-8.47-2.975-2.03-1.983-3.045-4.795-3.045-8.435V9.5h6.93v13.37c0 2.1.408 3.605 1.225 4.515.84.91 1.983 1.365 3.43 1.365s2.578-.455 3.395-1.365c.817-.91 1.225-2.415 1.225-4.515V9.5h6.825v13.58c0 3.64-1.015 6.452-3.045 8.435-2.03 1.983-4.853 2.975-8.47 2.975Z" fill="#F3E243"/><path d="M27.025 34 37.84 9.5h6.825L55.515 34h-7.21l-8.47-21.105h2.73L34.095 34h-7.07Zm5.915-4.76 1.785-5.11h11.97l1.785 5.11H32.94Z" fill="#20A0FD"/><path d="M56.71 26.58v-5.11h10.22v5.11H56.71ZM71.048 34V9.5h11.2c2.24 0 4.165.362 5.775 1.085 1.633.723 2.893 1.773 3.78 3.15.886 1.353 1.33 2.963 1.33 4.83 0 1.843-.444 3.442-1.33 4.795-.887 1.33-2.147 2.357-3.78 3.08-1.61.7-3.535 1.05-5.775 1.05h-7.35l3.08-2.905V34h-6.93Zm15.155 0-6.09-8.925h7.385L93.624 34h-7.42Zm-8.225-8.68-3.08-3.185h6.93c1.446 0 2.52-.315 3.22-.945.723-.63 1.085-1.505 1.085-2.625 0-1.143-.362-2.03-1.085-2.66-.7-.63-1.774-.945-3.22-.945h-6.93l3.08-3.185V25.32ZM96.957 34V9.5h11.2c2.24 0 4.165.362 5.775 1.085 1.633.723 2.893 1.773 3.78 3.15.887 1.353 1.33 2.963 1.33 4.83 0 1.843-.443 3.442-1.33 4.795-.887 1.353-2.147 2.403-3.78 3.15-1.61.723-3.535 1.085-5.775 1.085h-7.35l3.08-3.01V34h-6.93Zm6.93-8.68-3.08-3.185h6.93c1.447 0 2.52-.315 3.22-.945.723-.63 1.085-1.505 1.085-2.625 0-1.143-.362-2.03-1.085-2.66-.7-.63-1.773-.945-3.22-.945h-6.93l3.08-3.185V25.32ZM.679 44.89h2.583c.54 0 1.004.082 1.391.245.388.163.686.403.894.722.208.32.312.712.312 1.177 0 .368-.065.687-.195.957-.13.27-.314.497-.552.679a2.707 2.707 0 0 1-.83.43l-.42.215h-2.28l-.01-1.06h1.704c.277 0 .507-.049.689-.147a.966.966 0 0 0 .41-.405 1.21 1.21 0 0 0 .142-.59 1.3 1.3 0 0 0-.137-.616.926.926 0 0 0-.415-.405c-.186-.095-.42-.142-.703-.142h-1.24V52H.678v-7.11ZM4.692 52l-1.645-3.184 1.42-.005 1.666 3.12V52h-1.44Zm17.871-6.03L20.537 52h-1.421l2.656-7.11h.909l-.118 1.08ZM24.258 52l-2.037-6.03-.122-1.08h.913L25.683 52h-1.425Zm-.093-2.642v1.06H20.35v-1.06h3.814Zm20.41-1.035v2.769a2.281 2.281 0 0 1-.493.434 3.184 3.184 0 0 1-.87.406c-.358.11-.797.166-1.318.166a3.31 3.31 0 0 1-1.24-.225 2.674 2.674 0 0 1-.967-.669 3.016 3.016 0 0 1-.625-1.074 4.423 4.423 0 0 1-.22-1.45v-.47c0-.543.069-1.026.206-1.45.14-.422.338-.78.595-1.073.26-.293.572-.516.933-.67a3.139 3.139 0 0 1 1.22-.229c.603 0 1.098.1 1.485.298.39.199.69.472.898.82a2.9 2.9 0 0 1 .39 1.192h-1.308a1.799 1.799 0 0 0-.215-.65 1.107 1.107 0 0 0-.459-.44c-.195-.107-.449-.16-.761-.16-.264 0-.497.052-.699.156a1.38 1.38 0 0 0-.507.454 2.22 2.22 0 0 0-.313.737 4.453 4.453 0 0 0-.102 1.006v.479c0 .38.039.72.117 1.015.078.293.19.54.337.742.15.2.333.35.552.455.22.1.472.151.752.151.253 0 .463-.021.63-.063.169-.046.304-.1.405-.162.1-.061.179-.122.234-.18v-1.333h-1.411v-.982h2.754Zm18.681 2.622V52h-3.779v-1.055h3.78Zm-3.369-6.054V52h-1.343v-7.11h1.343Zm2.876 2.934v1.03h-3.286v-1.03h3.286Zm.479-2.934v1.06h-3.765v-1.06h3.765Zm29.423 0h1.162l1.944 5.351 1.938-5.351h1.167L96.234 52h-.932l-2.637-7.11Zm-.586 0h1.138l.205 4.917V52h-1.343v-7.11Zm6.24 0h1.143V52h-1.343v-2.192l.2-4.917Zm17.944 4.516h-1.831v-1.054h1.831c.3 0 .542-.05.728-.147a.954.954 0 0 0 .415-.41c.088-.176.132-.376.132-.6 0-.219-.044-.422-.132-.611a1.061 1.061 0 0 0-.415-.459c-.186-.117-.428-.176-.728-.176h-1.391V52h-1.343v-7.11h2.734c.554 0 1.026.1 1.416.298.394.196.694.468.899.816.208.345.312.739.312 1.181 0 .46-.104.855-.312 1.187a1.99 1.99 0 0 1-.899.767c-.39.179-.862.268-1.416.268Z" fill="#fff"/></svg>