<svg width="431" height="332" fill="none" xmlns="http://www.w3.org/2000/svg"><g filter="url(#a)"><path d="M339.581 87.423c1.859-.498 3.56 1.203 3.062 3.062l-47.989 179.097c-.498 1.859-2.821 2.481-4.182 1.121L159.363 139.594c-1.36-1.36-.738-3.684 1.121-4.182l179.097-47.99Z" stroke="url(#b)" stroke-width="5" shape-rendering="crispEdges"/></g><path d="M233.5 257c-12.833 0-24.833-1.75-36-5.25-11.167-3.5-20.5-8.5-28-15L189 207c5.667 5 12.583 8.917 20.75 11.75 8.333 2.833 17.167 4.25 26.5 4.25 8 0 14.75-1 20.25-3 5.667-2 9.917-4.917 12.75-8.75 3-3.833 4.5-8.333 4.5-13.5 0-6.333-2.417-11-7.25-14-4.667-3.167-11.833-4.75-21.5-4.75h-18.5l5.25-26.75 59-55.25 2.75 14.5h-92.25L208 79h122.5l-5 26.25-59 55.25-19-11.5h9c12.167 0 22.583 1.917 31.25 5.75 8.667 3.667 15.333 9 20 16 4.667 6.833 7 15 7 24.5 0 11.833-3.5 22.417-10.5 31.75-6.833 9.333-16.417 16.667-28.75 22-12.167 5.333-26.167 8-42 8ZM1.7 254l7-35h8.1l-7 35H1.7Zm8.55-14.15 1.3-6.7H23.8l-1.3 6.7H10.25ZM24.9 254l-7.55-16.9 6.75-3.75L33.6 254h-8.7Zm-.6-16.65-7.8-.9L31.35 219h9.1L24.3 237.35Zm30.475 17.05c-2.167 0-4.067-.417-5.7-1.25-1.6-.833-2.8-2.117-3.6-3.85-.8-1.767-1.084-4.033-.85-6.8.2-3.2.85-5.983 1.95-8.35 1.133-2.367 2.666-4.2 4.6-5.5 1.933-1.3 4.216-1.95 6.85-1.95 2.1 0 4.033.483 5.8 1.45 1.766.933 3.183 2.3 4.25 4.1 1.066 1.767 1.6 3.933 1.6 6.5 0 2.233-.384 4.317-1.15 6.25-.767 1.9-1.834 3.55-3.2 4.95a14.63 14.63 0 0 1-4.7 3.3c-1.8.767-3.75 1.15-5.85 1.15Zm-19.15 9.3 7.3-36.6h7.4l-1.1 5.35-1.7 8-1.05 8-3.05 15.25h-7.8Zm18.25-15.75c1.566 0 2.933-.367 4.1-1.1 1.166-.767 2.083-1.8 2.75-3.1.7-1.333 1.05-2.883 1.05-4.65 0-1.833-.534-3.283-1.6-4.35-1.067-1.067-2.584-1.6-4.55-1.6-1.5 0-2.85.383-4.05 1.15-1.2.733-2.134 1.767-2.8 3.1-.667 1.3-1 2.833-1 4.6 0 1.833.533 3.283 1.6 4.35 1.066 1.067 2.566 1.6 4.5 1.6Zm32.563 6.45c-2.733 0-5.117-.5-7.15-1.5-2.033-1-3.617-2.4-4.75-4.2-1.1-1.8-1.65-3.917-1.65-6.35 0-3 .7-5.667 2.1-8 1.4-2.367 3.317-4.233 5.75-5.6 2.467-1.367 5.267-2.05 8.4-2.05 2.767 0 5.15.5 7.15 1.5 2.033 1 3.6 2.4 4.7 4.2 1.133 1.767 1.7 3.883 1.7 6.35 0 2.967-.7 5.633-2.1 8-1.4 2.367-3.317 4.233-5.75 5.6s-5.233 2.05-8.4 2.05Zm.5-6.4c1.533 0 2.883-.367 4.05-1.1 1.2-.767 2.133-1.817 2.8-3.15.667-1.333 1-2.883 1-4.65 0-1.8-.533-3.25-1.6-4.35-1.067-1.1-2.567-1.65-4.5-1.65-1.533 0-2.9.383-4.1 1.15-1.167.733-2.1 1.767-2.8 3.1-.667 1.333-1 2.883-1 4.65 0 1.833.533 3.3 1.6 4.4 1.067 1.067 2.583 1.6 4.55 1.6Zm37.509 6-6.1-12.8 6.45-2.95 8.65 15.75h-9Zm-19.1 0 5.4-26.9h7.8l-5.4 26.9h-7.8Zm7.6-10.2 1.15-6.25h9.45l-1.2 6.25h-9.4Zm12.15-2.3-7.35-.9 12.2-13.5h8.5l-13.35 14.4Z" fill="#fff"/><defs><linearGradient id="b" x1="264.533" y1="110.13" x2="297.5" y2="203.967" gradientUnits="userSpaceOnUse"><stop stop-color="#1FA1FF"/><stop offset="1" stop-opacity="0"/></linearGradient><filter id="a" x="126.128" y="54.832" width="249.106" height="249.106" filterUnits="userSpaceOnUse" color-interpolation-filters="sRGB"><feFlood flood-opacity="0" result="BackgroundImageFix"/><feColorMatrix in="SourceAlpha" values="0 0 0 0 0 0 0 0 0 0 0 0 0 0 0 0 0 0 127 0" result="hardAlpha"/><feOffset/><feGaussianBlur stdDeviation="15"/><feComposite in2="hardAlpha" operator="out"/><feColorMatrix values="0 0 0 0 0.121569 0 0 0 0 0.631373 0 0 0 0 1 0 0 0 0.65 0"/><feBlend in2="BackgroundImageFix" result="effect1_dropShadow_9_64"/><feBlend in="SourceGraphic" in2="effect1_dropShadow_9_64" result="shape"/></filter></defs></svg>