<svg width="419" height="332" fill="none" xmlns="http://www.w3.org/2000/svg"><g filter="url(#a)"><path d="M327.581 87.423c1.859-.498 3.56 1.203 3.062 3.062l-47.989 179.097c-.498 1.859-2.821 2.481-4.182 1.121L147.363 139.594c-1.36-1.36-.738-3.684 1.121-4.182l179.097-47.99Z" stroke="url(#b)" stroke-width="5" shape-rendering="crispEdges"/></g><path d="m160.75 254 5.25-26.25 79.75-62.5c6.667-5.333 11.833-10 15.5-14 3.833-4 6.5-7.75 8-11.25 1.5-3.667 2.25-7.417 2.25-11.25 0-5.833-2.167-10.5-6.5-14s-10.75-5.25-19.25-5.25c-7 0-13.75 1.583-20.25 4.75-6.333 3.167-12 7.667-17 13.5L181.25 108c7.167-9.667 16.917-17.417 29.25-23.25 12.333-5.833 26.083-8.75 41.25-8.75 12.333 0 23.083 2.083 32.25 6.25 9.167 4 16.25 9.5 21.25 16.5 5.167 7 7.75 15.083 7.75 24.25 0 6.833-1.25 13.5-3.75 20s-6.667 13.167-12.5 20c-5.667 6.667-13.667 14-24 22l-65.5 50.75-6.5-14.75h99l-6.5 33h-132.5Zm-159.05.467 7-35h8.1l-7 35H1.7Zm8.55-14.15 1.3-6.7H23.8l-1.3 6.7H10.25Zm14.65 14.15-7.55-16.9 6.75-3.75 9.5 20.65h-8.7Zm-.6-16.65-7.8-.9 14.85-17.45h9.1l-16.15 18.35Zm30.475 17.05c-2.167 0-4.067-.417-5.7-1.25-1.6-.833-2.8-2.117-3.6-3.85-.8-1.767-1.084-4.033-.85-6.8.2-3.2.85-5.983 1.95-8.35 1.133-2.367 2.666-4.2 4.6-5.5 1.933-1.3 4.216-1.95 6.85-1.95 2.1 0 4.033.483 5.8 1.45 1.766.933 3.183 2.3 4.25 4.1 1.066 1.767 1.6 3.933 1.6 6.5 0 2.233-.384 4.317-1.15 6.25-.767 1.9-1.834 3.55-3.2 4.95a14.63 14.63 0 0 1-4.7 3.3c-1.8.767-3.75 1.15-5.85 1.15Zm-19.15 9.3 7.3-36.6h7.4l-1.1 5.35-1.7 8-1.05 8-3.05 15.25h-7.8Zm18.25-15.75c1.566 0 2.933-.367 4.1-1.1 1.166-.767 2.083-1.8 2.75-3.1.7-1.333 1.05-2.883 1.05-4.65 0-1.833-.534-3.283-1.6-4.35-1.067-1.067-2.584-1.6-4.55-1.6-1.5 0-2.85.383-4.05 1.15-1.2.733-2.134 1.767-2.8 3.1-.667 1.3-1 2.833-1 4.6 0 1.833.533 3.283 1.6 4.35 1.066 1.067 2.566 1.6 4.5 1.6Zm32.563 6.45c-2.733 0-5.117-.5-7.15-1.5-2.033-1-3.617-2.4-4.75-4.2-1.1-1.8-1.65-3.917-1.65-6.35 0-3 .7-5.667 2.1-8 1.4-2.367 3.317-4.233 5.75-5.6 2.467-1.367 5.267-2.05 8.4-2.05 2.767 0 5.15.5 7.15 1.5 2.033 1 3.6 2.4 4.7 4.2 1.133 1.767 1.7 3.883 1.7 6.35 0 2.967-.7 5.633-2.1 8-1.4 2.367-3.317 4.233-5.75 5.6s-5.233 2.05-8.4 2.05Zm.5-6.4c1.533 0 2.883-.367 4.05-1.1 1.2-.767 2.133-1.817 2.8-3.15.667-1.333 1-2.883 1-4.65 0-1.8-.533-3.25-1.6-4.35-1.067-1.1-2.567-1.65-4.5-1.65-1.533 0-2.9.383-4.1 1.15-1.167.733-2.1 1.767-2.8 3.1-.667 1.333-1 2.883-1 4.65 0 1.833.533 3.3 1.6 4.4 1.067 1.067 2.583 1.6 4.55 1.6Zm37.509 6-6.1-12.8 6.45-2.95 8.65 15.75h-9Zm-19.1 0 5.4-26.9h7.8l-5.4 26.9h-7.8Zm7.6-10.2 1.15-6.25h9.45l-1.2 6.25h-9.4Zm12.15-2.3-7.35-.9 12.2-13.5h8.5l-13.35 14.4Z" fill="#fff"/><defs><linearGradient id="b" x1="252.533" y1="110.13" x2="285.5" y2="203.967" gradientUnits="userSpaceOnUse"><stop stop-color="#1FA1FF"/><stop offset="1" stop-opacity="0"/></linearGradient><filter id="a" x="114.128" y="54.832" width="249.106" height="249.106" filterUnits="userSpaceOnUse" color-interpolation-filters="sRGB"><feFlood flood-opacity="0" result="BackgroundImageFix"/><feColorMatrix in="SourceAlpha" values="0 0 0 0 0 0 0 0 0 0 0 0 0 0 0 0 0 0 127 0" result="hardAlpha"/><feOffset/><feGaussianBlur stdDeviation="15"/><feComposite in2="hardAlpha" operator="out"/><feColorMatrix values="0 0 0 0 0.121569 0 0 0 0 0.631373 0 0 0 0 1 0 0 0 0.65 0"/><feBlend in2="BackgroundImageFix" result="effect1_dropShadow_9_53"/><feBlend in="SourceGraphic" in2="effect1_dropShadow_9_53" result="shape"/></filter></defs></svg>