<svg width="138" height="36" fill="none" xmlns="http://www.w3.org/2000/svg"><path d="M18.68 28 10.8 14.68l6.36-3.76L27.6 28h-8.92ZM.84 28V0h7.88v28H.84Zm5.6-10.72v-6.4H16.6v6.4H6.44Zm11.48-2.44-7.32-.8L19.2 0h8.32l-9.6 14.84Zm25.89 13.52c-1.84 0-3.414-.4-4.72-1.2-1.307-.827-2.307-2.053-3-3.68-.667-1.653-1-3.76-1-6.32 0-2.587.32-4.693.96-6.32.64-1.653 1.6-2.88 2.88-3.68 1.306-.8 2.933-1.2 4.88-1.2 1.973 0 3.76.467 5.36 1.4 1.626.907 2.906 2.2 3.84 3.88.96 1.653 1.44 3.627 1.44 5.92s-.48 4.28-1.44 5.96c-.934 1.68-2.214 2.973-3.84 3.88-1.6.907-3.387 1.36-5.36 1.36Zm-13.64 7.4V6.32h7.24V10l-.04 7.16.4 7.2v11.4h-7.6Zm12.04-13.44c.853 0 1.613-.2 2.28-.6.693-.4 1.24-.987 1.64-1.76.426-.773.64-1.707.64-2.8 0-1.093-.214-2.027-.64-2.8-.4-.773-.947-1.36-1.64-1.76-.667-.4-1.427-.6-2.28-.6-.854 0-1.627.2-2.32.6-.667.4-1.214.987-1.64 1.76-.4.773-.6 1.707-.6 2.8 0 1.093.2 2.027.6 2.8.426.773.973 1.36 1.64 1.76.693.4 1.466.6 2.32.6Zm26.57 6.04c-2.374 0-4.48-.48-6.32-1.44-1.84-.96-3.294-2.28-4.36-3.96-1.04-1.707-1.56-3.653-1.56-5.84s.52-4.12 1.56-5.8c1.066-1.68 2.52-2.987 4.36-3.92 1.84-.96 3.946-1.44 6.32-1.44 2.372 0 4.48.48 6.32 1.44 1.866.933 3.32 2.24 4.36 3.92 1.04 1.68 1.56 3.613 1.56 5.8s-.52 4.133-1.56 5.84c-1.04 1.68-2.494 3-4.36 3.96-1.84.96-3.948 1.44-6.32 1.44Zm0-6.04c.88 0 1.652-.2 2.32-.6.692-.4 1.24-.987 1.64-1.76.4-.8.6-1.747.6-2.84 0-1.093-.2-2.013-.6-2.76-.4-.773-.948-1.36-1.64-1.76-.668-.4-1.44-.6-2.32-.6-.854 0-1.628.2-2.32.6-.668.4-1.214.987-1.64 1.76-.4.747-.6 1.667-.6 2.76 0 1.093.2 2.04.6 2.84.426.773.972 1.36 1.64 1.76.692.4 1.466.6 2.32.6ZM99.782 28l-6.6-10.12 6.12-3.6 9.44 13.72h-8.96Zm-15.2 0V6.32h7.6V28h-7.6Zm5.36-7.72v-5.96h7.84v5.96h-7.84Zm10.12-2.28-7.12-.72 7.28-10.96h8.04l-8.2 11.68Zm23.561 10 5-25.04 2.76 3.16h-8.6l1.24-6.12h13.12l-5.6 28h-7.92Z" fill="#FFEA31"/></svg>