<svg width="145" height="37" fill="none" xmlns="http://www.w3.org/2000/svg"><path d="M18.68 29 10.8 15.68l6.36-3.76L27.6 29h-8.92ZM.84 29V1h7.88v28H.84Zm5.6-10.72v-6.4H16.6v6.4H6.44Zm11.48-2.44-7.32-.8L19.2 1h8.32l-9.6 14.84Zm25.89 13.52c-1.84 0-3.414-.4-4.72-1.2-1.307-.827-2.307-2.053-3-3.68-.667-1.653-1-3.76-1-6.32 0-2.587.32-4.693.96-6.32.64-1.653 1.6-2.88 2.88-3.68 1.306-.8 2.933-1.2 4.88-1.2 1.973 0 3.76.467 5.36 1.4 1.626.907 2.906 2.2 3.84 3.88.96 1.653 1.44 3.627 1.44 5.92s-.48 4.28-1.44 5.96c-.934 1.68-2.214 2.973-3.84 3.88-1.6.907-3.387 1.36-5.36 1.36Zm-13.64 7.4V7.32h7.24V11l-.04 7.16.4 7.2v11.4h-7.6Zm12.04-13.44c.853 0 1.613-.2 2.28-.6.693-.4 1.24-.987 1.64-1.76.426-.773.64-1.707.64-2.8 0-1.093-.214-2.027-.64-2.8-.4-.773-.947-1.36-1.64-1.76-.667-.4-1.427-.6-2.28-.6-.854 0-1.627.2-2.32.6-.667.4-1.214.987-1.64 1.76-.4.773-.6 1.707-.6 2.8 0 1.093.2 2.027.6 2.8.426.773.973 1.36 1.64 1.76.693.4 1.466.6 2.32.6Zm26.57 6.04c-2.374 0-4.48-.48-6.32-1.44-1.84-.96-3.294-2.28-4.36-3.96-1.04-1.707-1.56-3.653-1.56-5.84s.52-4.12 1.56-5.8c1.066-1.68 2.52-2.987 4.36-3.92 1.84-.96 3.946-1.44 6.32-1.44 2.372 0 4.48.48 6.32 1.44 1.866.933 3.32 2.24 4.36 3.92 1.04 1.68 1.56 3.613 1.56 5.8s-.52 4.133-1.56 5.84c-1.04 1.68-2.494 3-4.36 3.96-1.84.96-3.948 1.44-6.32 1.44Zm0-6.04c.88 0 1.652-.2 2.32-.6.692-.4 1.24-.987 1.64-1.76.4-.8.6-1.747.6-2.84 0-1.093-.2-2.013-.6-2.76-.4-.773-.948-1.36-1.64-1.76-.668-.4-1.44-.6-2.32-.6-.854 0-1.628.2-2.32.6-.668.4-1.214.987-1.64 1.76-.4.747-.6 1.667-.6 2.76 0 1.093.2 2.04.6 2.84.426.773.972 1.36 1.64 1.76.692.4 1.466.6 2.32.6ZM99.782 29l-6.6-10.12 6.12-3.6 9.44 13.72h-8.96Zm-15.2 0V7.32h7.6V29h-7.6Zm5.36-7.72v-5.96h7.84v5.96h-7.84Zm10.12-2.28-7.12-.72 7.28-10.96h8.04l-8.2 11.68Zm19.321 10 1-4.96 12.24-9.52c.96-.773 1.706-1.44 2.24-2 .533-.56.906-1.093 1.12-1.6.24-.507.36-1.013.36-1.52 0-.773-.294-1.4-.88-1.88-.587-.48-1.427-.72-2.52-.72-.96 0-1.894.253-2.8.76-.88.48-1.68 1.16-2.4 2.04l-5.28-3.48c1.12-1.733 2.706-3.107 4.76-4.12 2.053-1.04 4.36-1.56 6.92-1.56 2.026 0 3.813.333 5.36 1 1.573.667 2.786 1.587 3.64 2.76.88 1.147 1.32 2.48 1.32 4 0 1.12-.2 2.2-.6 3.24-.4 1.04-1.08 2.107-2.04 3.2-.934 1.067-2.24 2.24-3.92 3.52l-9.56 7.4-1.08-2.84h15.2l-1.28 6.28h-21.8Z" fill="#FFEA31"/></svg>